<mxfile host="app.diagrams.net" modified="2022-10-01T18:42:05.277Z" agent="5.0 (Macintosh; Intel Mac OS X 10_15_7) AppleWebKit/605.1.15 (KHTML, like Gecko) Version/15.6.1 Safari/605.1.15" etag="jXCsGsrdUNTcUiNBcWJs" version="20.4.0" type="github">
  <diagram name="Page-1" id="58cdce13-f638-feb5-8d6f-7d28b1aa9fa0">
    <mxGraphModel dx="822" dy="658" grid="1" gridSize="10" guides="1" tooltips="1" connect="1" arrows="1" fold="1" page="1" pageScale="1" pageWidth="1100" pageHeight="850" background="none" math="0" shadow="0">
      <root>
        <mxCell id="0" />
        <mxCell id="1" parent="0" />
        <mxCell id="tYTvWXKAVSk7aJ8OGIch-3" style="rounded=0;orthogonalLoop=1;jettySize=auto;html=1;entryX=0;entryY=0.5;entryDx=0;entryDy=0;" edge="1" parent="1" source="tYTvWXKAVSk7aJ8OGIch-1" target="tYTvWXKAVSk7aJ8OGIch-2">
          <mxGeometry relative="1" as="geometry" />
        </mxCell>
        <mxCell id="tYTvWXKAVSk7aJ8OGIch-17" style="edgeStyle=none;rounded=0;orthogonalLoop=1;jettySize=auto;html=1;entryX=0.04;entryY=0.323;entryDx=0;entryDy=0;entryPerimeter=0;startArrow=none;startFill=0;endArrow=classic;endFill=1;" edge="1" parent="1" source="tYTvWXKAVSk7aJ8OGIch-1" target="tYTvWXKAVSk7aJ8OGIch-16">
          <mxGeometry relative="1" as="geometry" />
        </mxCell>
        <mxCell id="tYTvWXKAVSk7aJ8OGIch-1" value="Customer" style="shape=umlActor;verticalLabelPosition=bottom;verticalAlign=top;html=1;outlineConnect=0;" vertex="1" parent="1">
          <mxGeometry x="90" y="190" width="30" height="60" as="geometry" />
        </mxCell>
        <mxCell id="tYTvWXKAVSk7aJ8OGIch-7" style="edgeStyle=none;rounded=0;orthogonalLoop=1;jettySize=auto;html=1;entryX=0;entryY=0.5;entryDx=0;entryDy=0;dashed=1;startArrow=none;startFill=0;endArrow=open;endFill=0;" edge="1" parent="1" source="tYTvWXKAVSk7aJ8OGIch-2" target="tYTvWXKAVSk7aJ8OGIch-4">
          <mxGeometry relative="1" as="geometry" />
        </mxCell>
        <mxCell id="tYTvWXKAVSk7aJ8OGIch-8" value="&amp;lt;&amp;lt; include &amp;gt;&amp;gt;" style="edgeLabel;html=1;align=center;verticalAlign=middle;resizable=0;points=[];" vertex="1" connectable="0" parent="tYTvWXKAVSk7aJ8OGIch-7">
          <mxGeometry x="0.2145" y="1" relative="1" as="geometry">
            <mxPoint x="-15" y="-3" as="offset" />
          </mxGeometry>
        </mxCell>
        <mxCell id="tYTvWXKAVSk7aJ8OGIch-2" value="Order_Request" style="ellipse;whiteSpace=wrap;html=1;" vertex="1" parent="1">
          <mxGeometry x="260" y="185" width="140" height="70" as="geometry" />
        </mxCell>
        <mxCell id="tYTvWXKAVSk7aJ8OGIch-4" value="Check-Tank" style="ellipse;whiteSpace=wrap;html=1;" vertex="1" parent="1">
          <mxGeometry x="540" y="190" width="140" height="70" as="geometry" />
        </mxCell>
        <mxCell id="tYTvWXKAVSk7aJ8OGIch-11" style="edgeStyle=none;rounded=0;orthogonalLoop=1;jettySize=auto;html=1;entryX=1;entryY=0.5;entryDx=0;entryDy=0;startArrow=none;startFill=0;endArrow=classic;endFill=1;" edge="1" parent="1" source="tYTvWXKAVSk7aJ8OGIch-9" target="tYTvWXKAVSk7aJ8OGIch-10">
          <mxGeometry relative="1" as="geometry" />
        </mxCell>
        <mxCell id="tYTvWXKAVSk7aJ8OGIch-9" value="Store_Manager" style="shape=umlActor;verticalLabelPosition=bottom;verticalAlign=top;html=1;" vertex="1" parent="1">
          <mxGeometry x="1100" y="235" width="30" height="60" as="geometry" />
        </mxCell>
        <mxCell id="tYTvWXKAVSk7aJ8OGIch-14" value="&amp;lt;&amp;lt; include &amp;gt;&amp;gt;" style="edgeStyle=none;rounded=0;orthogonalLoop=1;jettySize=auto;html=1;entryX=1;entryY=0.5;entryDx=0;entryDy=0;startArrow=none;startFill=0;endArrow=open;endFill=0;dashed=1;" edge="1" parent="1" source="tYTvWXKAVSk7aJ8OGIch-10" target="tYTvWXKAVSk7aJ8OGIch-4">
          <mxGeometry relative="1" as="geometry">
            <mxPoint x="740" y="335" as="targetPoint" />
          </mxGeometry>
        </mxCell>
        <mxCell id="tYTvWXKAVSk7aJ8OGIch-10" value="Purchasing_Order" style="ellipse;whiteSpace=wrap;html=1;" vertex="1" parent="1">
          <mxGeometry x="820" y="230" width="140" height="70" as="geometry" />
        </mxCell>
        <mxCell id="tYTvWXKAVSk7aJ8OGIch-16" value="Payment" style="ellipse;whiteSpace=wrap;html=1;" vertex="1" parent="1">
          <mxGeometry x="260" y="330" width="140" height="70" as="geometry" />
        </mxCell>
        <mxCell id="tYTvWXKAVSk7aJ8OGIch-18" value="Material" style="ellipse;shape=umlEntity;whiteSpace=wrap;html=1;" vertex="1" parent="1">
          <mxGeometry x="90" y="700" width="80" height="80" as="geometry" />
        </mxCell>
        <mxCell id="tYTvWXKAVSk7aJ8OGIch-19" value="Tank" style="ellipse;shape=umlEntity;whiteSpace=wrap;html=1;" vertex="1" parent="1">
          <mxGeometry x="237.5" y="700" width="80" height="80" as="geometry" />
        </mxCell>
        <mxCell id="tYTvWXKAVSk7aJ8OGIch-20" value="Giai đoạn phân tích hệ thống" style="text;align=center;fontStyle=1;verticalAlign=middle;spacingLeft=3;spacingRight=3;strokeColor=none;rotatable=0;points=[[0,0.5],[1,0.5]];portConstraint=eastwest;" vertex="1" parent="1">
          <mxGeometry y="60" width="215" height="26" as="geometry" />
        </mxCell>
        <mxCell id="tYTvWXKAVSk7aJ8OGIch-21" value="a. Sơ đồ Use Case nghiệp vụ" style="text;html=1;strokeColor=none;fillColor=none;align=center;verticalAlign=middle;whiteSpace=wrap;rounded=0;" vertex="1" parent="1">
          <mxGeometry x="10" y="100" width="190" height="30" as="geometry" />
        </mxCell>
        <mxCell id="tYTvWXKAVSk7aJ8OGIch-22" value="b. Thừa tác viên và thực thể nghiệp vụ" style="text;html=1;strokeColor=none;fillColor=none;align=center;verticalAlign=middle;whiteSpace=wrap;rounded=0;" vertex="1" parent="1">
          <mxGeometry x="20" y="420" width="217.5" height="30" as="geometry" />
        </mxCell>
        <mxCell id="tYTvWXKAVSk7aJ8OGIch-23" value="- Thừa tác viên" style="text;html=1;strokeColor=none;fillColor=none;align=left;verticalAlign=middle;whiteSpace=wrap;rounded=0;" vertex="1" parent="1">
          <mxGeometry x="30" y="460" width="217.5" height="30" as="geometry" />
        </mxCell>
        <mxCell id="tYTvWXKAVSk7aJ8OGIch-24" value="- Object Entity: Staff,&amp;nbsp;" style="text;html=1;strokeColor=none;fillColor=none;align=left;verticalAlign=middle;whiteSpace=wrap;rounded=0;" vertex="1" parent="1">
          <mxGeometry x="30" y="660" width="217.5" height="30" as="geometry" />
        </mxCell>
        <mxCell id="tYTvWXKAVSk7aJ8OGIch-25" value="Staff_Information" style="ellipse;shape=umlEntity;whiteSpace=wrap;html=1;" vertex="1" parent="1">
          <mxGeometry x="380" y="700" width="80" height="80" as="geometry" />
        </mxCell>
        <mxCell id="tYTvWXKAVSk7aJ8OGIch-26" value="Order" style="ellipse;shape=umlEntity;whiteSpace=wrap;html=1;" vertex="1" parent="1">
          <mxGeometry x="520" y="700" width="80" height="80" as="geometry" />
        </mxCell>
        <mxCell id="tYTvWXKAVSk7aJ8OGIch-27" value="Order" style="ellipse;shape=umlEntity;whiteSpace=wrap;html=1;" vertex="1" parent="1">
          <mxGeometry x="670" y="700" width="80" height="80" as="geometry" />
        </mxCell>
      </root>
    </mxGraphModel>
  </diagram>
</mxfile>
